<svg width="10" height="10" viewBox="0 0 10 10" fill="none" xmlns="http://www.w3.org/2000/svg">
<path fill-rule="evenodd" clip-rule="evenodd" d="M4.16658 9.08333C4.16658 9.49755 4.50237 9.83333 4.91658 9.83333C5.3308 9.83333 5.66658 9.49755 5.66658 9.08333V5.66658L9.08333 5.66658C9.49755 5.66658 9.83333 5.3308 9.83333 4.91658C9.83333 4.50237 9.49755 4.16658 9.08333 4.16658L5.66658 4.16658V0.75C5.66658 0.335787 5.3308 0 4.91658 0C4.50237 0 4.16658 0.335787 4.16658 0.75V4.16658L0.75 4.16658C0.335787 4.16658 0 4.50237 0 4.91658C0 5.3308 0.335787 5.66658 0.75 5.66658L4.16658 5.66658V9.08333Z" fill="white"/>
</svg>
