<svg width="10" height="10" viewBox="0 0 10 10" fill="none" xmlns="http://www.w3.org/2000/svg">
<path fill-rule="evenodd" clip-rule="evenodd" d="M1.6583 0.84174C1.3654 0.548847 0.890528 0.548847 0.597635 0.84174C0.304742 1.13463 0.304742 1.60951 0.597635 1.9024L3.89745 5.20222L0.597599 8.50207C0.304707 8.79496 0.304706 9.26984 0.597599 9.56273C0.890493 9.85563 1.36537 9.85563 1.65826 9.56273L4.95811 6.26288L8.25796 9.56272C8.55085 9.85562 9.02573 9.85562 9.31862 9.56272C9.61151 9.26983 9.61151 8.79496 9.31862 8.50206L6.01877 5.20222L9.31858 1.90241C9.61148 1.60952 9.61148 1.13464 9.31858 0.841749C9.02569 0.548856 8.55082 0.548856 8.25792 0.841749L4.95811 4.14156L1.6583 0.84174Z" fill="#868686"/>
</svg>
