<svg width="22" height="30" viewBox="0 0 22 30" fill="none" xmlns="http://www.w3.org/2000/svg">
<path d="M4 18C3.45 18 2.979 17.8043 2.587 17.413C2.19567 17.021 2 16.55 2 16V2C2 1.45 2.19567 0.979 2.587 0.587C2.979 0.195667 3.45 0 4 0H15.175C15.4417 0 15.696 0.0500001 15.938 0.15C16.1793 0.25 16.3917 0.391667 16.575 0.575L19.425 3.425C19.6083 3.60833 19.75 3.82067 19.85 4.062C19.95 4.304 20 4.55833 20 4.825V16C20 16.55 19.8043 17.021 19.413 17.413C19.021 17.8043 18.55 18 18 18H4ZM11 15C11.8333 15 12.5417 14.7083 13.125 14.125C13.7083 13.5417 14 12.8333 14 12C14 11.1667 13.7083 10.4583 13.125 9.875C12.5417 9.29167 11.8333 9 11 9C10.1667 9 9.45833 9.29167 8.875 9.875C8.29167 10.4583 8 11.1667 8 12C8 12.8333 8.29167 13.5417 8.875 14.125C9.45833 14.7083 10.1667 15 11 15ZM6 7H13C13.2833 7 13.521 6.904 13.713 6.712C13.9043 6.52067 14 6.28333 14 6V4C14 3.71667 13.9043 3.479 13.713 3.287C13.521 3.09567 13.2833 3 13 3H6C5.71667 3 5.479 3.09567 5.287 3.287C5.09567 3.479 5 3.71667 5 4V6C5 6.28333 5.09567 6.52067 5.287 6.712C5.479 6.904 5.71667 7 6 7Z" fill="white"/>
<path d="M19.208 29.1074C18.6709 29.1074 18.2054 28.9967 17.8115 28.7754C17.4176 28.5508 17.1149 28.2334 16.9033 27.8232C16.695 27.4131 16.5908 26.9297 16.5908 26.373C16.5908 25.8327 16.695 25.3558 16.9033 24.9424C17.1149 24.5257 17.4144 24.2035 17.8018 23.9756C18.1891 23.7445 18.6383 23.6289 19.1494 23.6289C19.6247 23.6289 20.0495 23.7298 20.4238 23.9316C20.8014 24.1302 21.0977 24.4313 21.3125 24.835C21.5306 25.2386 21.6396 25.7318 21.6396 26.3145V26.7246H18.0166C18.0166 26.9883 18.0654 27.2178 18.1631 27.4131C18.264 27.6084 18.4056 27.7598 18.5879 27.8672C18.7734 27.9714 18.9899 28.0234 19.2373 28.0234C19.4782 28.0202 19.6849 27.9714 19.8574 27.877C20.0299 27.7793 20.152 27.6491 20.2236 27.4863H21.6006C21.5322 27.8151 21.3923 28.1016 21.1807 28.3457C20.9691 28.5866 20.694 28.7738 20.3555 28.9072C20.0202 29.0407 19.6377 29.1074 19.208 29.1074ZM20.2725 25.8164C20.2725 25.6048 20.2253 25.4144 20.1309 25.2451C20.0397 25.0758 19.9111 24.9456 19.7451 24.8545C19.5791 24.7601 19.3903 24.7129 19.1787 24.7129C18.9639 24.7129 18.7686 24.7617 18.5928 24.8594C18.4202 24.957 18.2835 25.0905 18.1826 25.2598C18.0817 25.429 18.0264 25.6146 18.0166 25.8164H20.2725Z" fill="white"/>
<path d="M14.4131 29H12.792L10.9365 23.6973H12.46L13.5732 27.5059H13.6318L14.7451 23.6973H16.2783L14.4131 29Z" fill="white"/>
<path d="M5.72168 27.5156C5.72493 26.9688 5.90885 26.57 6.27344 26.3193C6.63802 26.0654 7.11165 25.9206 7.69434 25.8848C8.05241 25.862 8.49186 25.8392 9.0127 25.8164V25.3867C9.00944 25.1654 8.93457 24.9945 8.78809 24.874C8.6416 24.7503 8.43327 24.6868 8.16309 24.6836C7.91895 24.6868 7.72038 24.7406 7.56738 24.8447C7.41764 24.9456 7.32324 25.0872 7.28418 25.2695H5.90723C5.93652 24.957 6.04395 24.6771 6.22949 24.4297C6.41829 24.1823 6.68034 23.987 7.01562 23.8438C7.35091 23.7005 7.74642 23.6289 8.20215 23.6289C8.60905 23.6289 8.98177 23.6924 9.32031 23.8193C9.66211 23.9463 9.93555 24.1449 10.1406 24.415C10.3457 24.682 10.4482 25.0189 10.4482 25.4258V29H9.08105V28.2676H9.04199C8.90527 28.5247 8.70671 28.7282 8.44629 28.8779C8.18587 29.0277 7.86686 29.1009 7.48926 29.0977C7.14421 29.1009 6.83822 29.0423 6.57129 28.9219C6.30762 28.8014 6.09928 28.6224 5.94629 28.3848C5.79655 28.1471 5.72168 27.8574 5.72168 27.5156ZM7.1084 27.4766C7.1084 27.6751 7.18001 27.8281 7.32324 27.9355C7.46973 28.043 7.66178 28.0983 7.89941 28.1016C8.11426 28.1016 8.30632 28.0576 8.47559 27.9697C8.64811 27.8818 8.77995 27.763 8.87109 27.6133C8.96549 27.4603 9.0127 27.291 9.0127 27.1055V26.7197C8.5765 26.7393 8.21517 26.7604 7.92871 26.7832C7.67155 26.806 7.46973 26.8776 7.32324 26.998C7.18001 27.1152 7.1084 27.2747 7.1084 27.4766Z" fill="white"/>
<path d="M3.6123 25.2695C3.57975 25.084 3.48698 24.9359 3.33398 24.8252C3.18099 24.7145 2.98405 24.6576 2.74316 24.6543C2.50879 24.6576 2.31348 24.7096 2.15723 24.8105C2.00098 24.9082 1.92285 25.0368 1.92285 25.1963C1.92285 25.3232 1.97493 25.4323 2.0791 25.5234C2.18652 25.6113 2.3623 25.6797 2.60645 25.7285L3.55371 25.9238C4.07129 26.0312 4.4554 26.2021 4.70605 26.4365C4.95671 26.6709 5.08366 26.9785 5.08691 27.3594C5.08691 27.7044 4.98763 28.0088 4.78906 28.2725C4.59375 28.5361 4.31868 28.7412 3.96387 28.8877C3.60905 29.0342 3.19889 29.1074 2.7334 29.1074C2.26139 29.1074 1.85286 29.0407 1.50781 28.9072C1.16602 28.7705 0.895833 28.5768 0.697266 28.3262C0.501953 28.0723 0.383138 27.7728 0.34082 27.4277H1.7959C1.82845 27.6328 1.92448 27.7891 2.08398 27.8965C2.24674 28.0039 2.46322 28.0592 2.7334 28.0625C3.00033 28.0592 3.21354 28.0088 3.37305 27.9111C3.53255 27.8102 3.6123 27.6751 3.6123 27.5059C3.6123 27.3691 3.55371 27.2568 3.43652 27.1689C3.31934 27.0811 3.13704 27.0111 2.88965 26.959L2.01074 26.7832C1.50618 26.6823 1.12533 26.5049 0.868164 26.251C0.611003 25.9971 0.484049 25.6732 0.487305 25.2793C0.487305 24.944 0.578451 24.6527 0.760742 24.4053C0.943034 24.1546 1.20182 23.9626 1.53711 23.8291C1.87565 23.6956 2.27116 23.6289 2.72363 23.6289C3.16309 23.6289 3.5472 23.6956 3.87598 23.8291C4.20475 23.9626 4.46191 24.153 4.64746 24.4004C4.83626 24.6445 4.94369 24.9342 4.96973 25.2695H3.6123Z" fill="white"/>
</svg>
