<svg width="162" height="20" viewBox="0 0 162 20" fill="none" xmlns="http://www.w3.org/2000/svg">
<path d="M2.08594 3.625H4.07031L6.99219 11.9766L9.91406 3.625H11.8984L7.78906 15H6.19531L2.08594 3.625ZM1.01562 3.625H2.99219L3.35156 11.7656V15H1.01562V3.625ZM10.9922 3.625H12.9766V15H10.6328V11.7656L10.9922 3.625ZM14.5312 10.8594V10.6953C14.5312 10.0755 14.6198 9.50521 14.7969 8.98438C14.974 8.45833 15.2318 8.0026 15.5703 7.61719C15.9089 7.23177 16.3255 6.93229 16.8203 6.71875C17.3151 6.5 17.8828 6.39062 18.5234 6.39062C19.1641 6.39062 19.7344 6.5 20.2344 6.71875C20.7344 6.93229 21.1536 7.23177 21.4922 7.61719C21.8359 8.0026 22.0964 8.45833 22.2734 8.98438C22.4505 9.50521 22.5391 10.0755 22.5391 10.6953V10.8594C22.5391 11.474 22.4505 12.0443 22.2734 12.5703C22.0964 13.0911 21.8359 13.5469 21.4922 13.9375C21.1536 14.3229 20.737 14.6224 20.2422 14.8359C19.7474 15.0495 19.1797 15.1562 18.5391 15.1562C17.8984 15.1562 17.3281 15.0495 16.8281 14.8359C16.3333 14.6224 15.9141 14.3229 15.5703 13.9375C15.2318 13.5469 14.974 13.0911 14.7969 12.5703C14.6198 12.0443 14.5312 11.474 14.5312 10.8594ZM16.7812 10.6953V10.8594C16.7812 11.2135 16.8125 11.5443 16.875 11.8516C16.9375 12.1589 17.0365 12.4297 17.1719 12.6641C17.3125 12.8932 17.4948 13.0729 17.7188 13.2031C17.9427 13.3333 18.2161 13.3984 18.5391 13.3984C18.8516 13.3984 19.1198 13.3333 19.3438 13.2031C19.5677 13.0729 19.7474 12.8932 19.8828 12.6641C20.0182 12.4297 20.1172 12.1589 20.1797 11.8516C20.2474 11.5443 20.2812 11.2135 20.2812 10.8594V10.6953C20.2812 10.3516 20.2474 10.0286 20.1797 9.72656C20.1172 9.41927 20.0156 9.14844 19.875 8.91406C19.7396 8.67448 19.5599 8.48698 19.3359 8.35156C19.112 8.21615 18.8411 8.14844 18.5234 8.14844C18.2057 8.14844 17.9349 8.21615 17.7109 8.35156C17.4922 8.48698 17.3125 8.67448 17.1719 8.91406C17.0365 9.14844 16.9375 9.41927 16.875 9.72656C16.8125 10.0286 16.7812 10.3516 16.7812 10.6953ZM23.5625 10.8594V10.6953C23.5625 10.0755 23.651 9.50521 23.8281 8.98438C24.0052 8.45833 24.263 8.0026 24.6016 7.61719C24.9401 7.23177 25.3568 6.93229 25.8516 6.71875C26.3464 6.5 26.9141 6.39062 27.5547 6.39062C28.1953 6.39062 28.7656 6.5 29.2656 6.71875C29.7656 6.93229 30.1849 7.23177 30.5234 7.61719C30.8672 8.0026 31.1276 8.45833 31.3047 8.98438C31.4818 9.50521 31.5703 10.0755 31.5703 10.6953V10.8594C31.5703 11.474 31.4818 12.0443 31.3047 12.5703C31.1276 13.0911 30.8672 13.5469 30.5234 13.9375C30.1849 14.3229 29.7682 14.6224 29.2734 14.8359C28.7786 15.0495 28.2109 15.1562 27.5703 15.1562C26.9297 15.1562 26.3594 15.0495 25.8594 14.8359C25.3646 14.6224 24.9453 14.3229 24.6016 13.9375C24.263 13.5469 24.0052 13.0911 23.8281 12.5703C23.651 12.0443 23.5625 11.474 23.5625 10.8594ZM25.8125 10.6953V10.8594C25.8125 11.2135 25.8438 11.5443 25.9062 11.8516C25.9688 12.1589 26.0677 12.4297 26.2031 12.6641C26.3438 12.8932 26.526 13.0729 26.75 13.2031C26.974 13.3333 27.2474 13.3984 27.5703 13.3984C27.8828 13.3984 28.151 13.3333 28.375 13.2031C28.599 13.0729 28.7786 12.8932 28.9141 12.6641C29.0495 12.4297 29.1484 12.1589 29.2109 11.8516C29.2786 11.5443 29.3125 11.2135 29.3125 10.8594V10.6953C29.3125 10.3516 29.2786 10.0286 29.2109 9.72656C29.1484 9.41927 29.0469 9.14844 28.9062 8.91406C28.7708 8.67448 28.5911 8.48698 28.3672 8.35156C28.1432 8.21615 27.8724 8.14844 27.5547 8.14844C27.237 8.14844 26.9661 8.21615 26.7422 8.35156C26.5234 8.48698 26.3438 8.67448 26.2031 8.91406C26.0677 9.14844 25.9688 9.41927 25.9062 9.72656C25.8438 10.0286 25.8125 10.3516 25.8125 10.6953ZM35.1562 8.35156V15H32.9062V6.54688H35.0156L35.1562 8.35156ZM34.8281 10.4766H34.2188C34.2188 9.85156 34.2995 9.28906 34.4609 8.78906C34.6224 8.28385 34.849 7.85417 35.1406 7.5C35.4323 7.14062 35.7786 6.86719 36.1797 6.67969C36.5859 6.48698 37.0391 6.39062 37.5391 6.39062C37.9349 6.39062 38.2969 6.44792 38.625 6.5625C38.9531 6.67708 39.2344 6.85938 39.4688 7.10938C39.7083 7.35938 39.8906 7.6901 40.0156 8.10156C40.1458 8.51302 40.2109 9.01562 40.2109 9.60938V15H37.9453V9.60156C37.9453 9.22656 37.8932 8.9349 37.7891 8.72656C37.6849 8.51823 37.5312 8.3724 37.3281 8.28906C37.1302 8.20052 36.8854 8.15625 36.5938 8.15625C36.2917 8.15625 36.0286 8.21615 35.8047 8.33594C35.5859 8.45573 35.4036 8.6224 35.2578 8.83594C35.1172 9.04427 35.0104 9.28906 34.9375 9.57031C34.8646 9.85156 34.8281 10.1536 34.8281 10.4766ZM44.1719 2.99219V15H41.9219V2.99219H44.1719ZM49.5 6.54688L45.8281 10.7344L43.8594 12.7266L43.0391 11.1016L44.6016 9.11719L46.7969 6.54688H49.5ZM47.1641 15L44.6641 11.0938L46.2188 9.73438L49.7578 15H47.1641ZM52.8438 3V15H50.5859V3H52.8438ZM59.2656 13.0938V9.32812C59.2656 9.05729 59.2214 8.82552 59.1328 8.63281C59.0443 8.4349 58.9062 8.28125 58.7188 8.17188C58.5365 8.0625 58.2995 8.00781 58.0078 8.00781C57.7578 8.00781 57.5417 8.05208 57.3594 8.14062C57.1771 8.22396 57.0365 8.34635 56.9375 8.50781C56.8385 8.66406 56.7891 8.84896 56.7891 9.0625H54.5391C54.5391 8.70312 54.6224 8.36198 54.7891 8.03906C54.9557 7.71615 55.1979 7.43229 55.5156 7.1875C55.8333 6.9375 56.2109 6.74219 56.6484 6.60156C57.0911 6.46094 57.5859 6.39062 58.1328 6.39062C58.7891 6.39062 59.3724 6.5 59.8828 6.71875C60.3932 6.9375 60.7943 7.26562 61.0859 7.70312C61.3828 8.14062 61.5312 8.6875 61.5312 9.34375V12.9609C61.5312 13.4245 61.5599 13.8047 61.6172 14.1016C61.6745 14.3932 61.7578 14.6484 61.8672 14.8672V15H59.5938C59.4844 14.7708 59.401 14.4844 59.3438 14.1406C59.2917 13.7917 59.2656 13.4427 59.2656 13.0938ZM59.5625 9.85156L59.5781 11.125H58.3203C58.0234 11.125 57.7656 11.1589 57.5469 11.2266C57.3281 11.2943 57.1484 11.3906 57.0078 11.5156C56.8672 11.6354 56.763 11.776 56.6953 11.9375C56.6328 12.099 56.6016 12.276 56.6016 12.4688C56.6016 12.6615 56.6458 12.8359 56.7344 12.9922C56.8229 13.1432 56.9505 13.263 57.1172 13.3516C57.2839 13.4349 57.4792 13.4766 57.7031 13.4766C58.0417 13.4766 58.3359 13.4089 58.5859 13.2734C58.8359 13.138 59.0286 12.9714 59.1641 12.7734C59.3047 12.5755 59.3776 12.388 59.3828 12.2109L59.9766 13.1641C59.8932 13.3776 59.7786 13.599 59.6328 13.8281C59.4922 14.0573 59.3125 14.2734 59.0938 14.4766C58.875 14.6745 58.612 14.8385 58.3047 14.9688C57.9974 15.0938 57.6328 15.1562 57.2109 15.1562C56.6745 15.1562 56.1875 15.0495 55.75 14.8359C55.3177 14.6172 54.974 14.3177 54.7188 13.9375C54.4688 13.5521 54.3438 13.1146 54.3438 12.625C54.3438 12.1823 54.4271 11.7891 54.5938 11.4453C54.7604 11.1016 55.0052 10.8125 55.3281 10.5781C55.6562 10.3385 56.0651 10.1589 56.5547 10.0391C57.0443 9.91406 57.612 9.85156 58.2578 9.85156H59.5625ZM63.2656 3H65.5156V13.0625L65.2891 15H63.2656V3ZM70.8672 10.6875V10.8516C70.8672 11.4818 70.7995 12.0599 70.6641 12.5859C70.5339 13.112 70.3307 13.5677 70.0547 13.9531C69.7786 14.3333 69.4349 14.6302 69.0234 14.8438C68.6172 15.0521 68.138 15.1562 67.5859 15.1562C67.0703 15.1562 66.6224 15.0521 66.2422 14.8438C65.8672 14.6354 65.5521 14.3411 65.2969 13.9609C65.0417 13.5807 64.8359 13.1354 64.6797 12.625C64.5234 12.1146 64.4062 11.5573 64.3281 10.9531V10.5938C64.4062 9.98958 64.5234 9.43229 64.6797 8.92188C64.8359 8.41146 65.0417 7.96615 65.2969 7.58594C65.5521 7.20573 65.8672 6.91146 66.2422 6.70312C66.6172 6.49479 67.0599 6.39062 67.5703 6.39062C68.1276 6.39062 68.612 6.4974 69.0234 6.71094C69.4401 6.91927 69.7839 7.21615 70.0547 7.60156C70.3307 7.98177 70.5339 8.4349 70.6641 8.96094C70.7995 9.48177 70.8672 10.0573 70.8672 10.6875ZM68.6172 10.8516V10.6875C68.6172 10.3438 68.5911 10.0208 68.5391 9.71875C68.4922 9.41146 68.4089 9.14323 68.2891 8.91406C68.1693 8.67969 68.0052 8.49479 67.7969 8.35938C67.5938 8.22396 67.3307 8.15625 67.0078 8.15625C66.7005 8.15625 66.4401 8.20833 66.2266 8.3125C66.013 8.41667 65.8359 8.5625 65.6953 8.75C65.5599 8.9375 65.4583 9.16146 65.3906 9.42188C65.3229 9.67708 65.2812 9.95833 65.2656 10.2656V11.2891C65.2812 11.7005 65.349 12.0651 65.4688 12.3828C65.5938 12.6953 65.7812 12.9427 66.0312 13.125C66.2865 13.3021 66.6172 13.3906 67.0234 13.3906C67.3411 13.3906 67.6042 13.3281 67.8125 13.2031C68.0208 13.0781 68.1823 12.901 68.2969 12.6719C68.4167 12.4427 68.5 12.1745 68.5469 11.8672C68.5938 11.5547 68.6172 11.2161 68.6172 10.8516ZM76.8359 12.6641C76.8359 12.5026 76.7891 12.3568 76.6953 12.2266C76.6016 12.0964 76.4271 11.9766 76.1719 11.8672C75.9219 11.7526 75.5599 11.6484 75.0859 11.5547C74.6589 11.4609 74.2604 11.3438 73.8906 11.2031C73.526 11.0573 73.2083 10.8828 72.9375 10.6797C72.6719 10.4766 72.4635 10.237 72.3125 9.96094C72.1615 9.67969 72.0859 9.35938 72.0859 9C72.0859 8.64583 72.1615 8.3125 72.3125 8C72.4688 7.6875 72.6901 7.41146 72.9766 7.17188C73.2682 6.92708 73.6224 6.73698 74.0391 6.60156C74.4609 6.46094 74.9349 6.39062 75.4609 6.39062C76.1953 6.39062 76.8255 6.50781 77.3516 6.74219C77.8828 6.97656 78.2891 7.29948 78.5703 7.71094C78.8568 8.11719 79 8.58073 79 9.10156H76.75C76.75 8.88281 76.7031 8.6875 76.6094 8.51562C76.5208 8.33854 76.3802 8.20052 76.1875 8.10156C76 7.9974 75.7552 7.94531 75.4531 7.94531C75.2031 7.94531 74.987 7.98958 74.8047 8.07812C74.6224 8.16146 74.4818 8.27604 74.3828 8.42188C74.2891 8.5625 74.2422 8.71875 74.2422 8.89062C74.2422 9.02083 74.2682 9.13802 74.3203 9.24219C74.3776 9.34115 74.4688 9.43229 74.5938 9.51562C74.7188 9.59896 74.8802 9.67708 75.0781 9.75C75.2812 9.81771 75.5312 9.88021 75.8281 9.9375C76.4375 10.0625 76.9818 10.2266 77.4609 10.4297C77.9401 10.6276 78.3203 10.8984 78.6016 11.2422C78.8828 11.5807 79.0234 12.026 79.0234 12.5781C79.0234 12.9531 78.9401 13.2969 78.7734 13.6094C78.6068 13.9219 78.3672 14.1953 78.0547 14.4297C77.7422 14.6589 77.3672 14.8385 76.9297 14.9688C76.4974 15.0938 76.0104 15.1562 75.4688 15.1562C74.6823 15.1562 74.0156 15.0156 73.4688 14.7344C72.9271 14.4531 72.5156 14.0964 72.2344 13.6641C71.9583 13.2266 71.8203 12.7786 71.8203 12.3203H73.9531C73.9635 12.6276 74.0417 12.875 74.1875 13.0625C74.3385 13.25 74.5286 13.3854 74.7578 13.4688C74.9922 13.5521 75.2448 13.5938 75.5156 13.5938C75.8073 13.5938 76.0495 13.5547 76.2422 13.4766C76.4349 13.3932 76.5807 13.2839 76.6797 13.1484C76.7839 13.0078 76.8359 12.8464 76.8359 12.6641Z" fill="white"/>
<path d="M86.2266 3.625H88.4609L91 11.5391L93.5391 3.625H95.7734L91.9062 15H90.0938L86.2266 3.625ZM84.8672 3.625H87.1797L87.6094 12.3438V15H84.8672V3.625ZM94.8203 3.625H97.1406V15H94.3906V12.3438L94.8203 3.625ZM102.594 15H100.07L100.086 12.8906H102.594C103.115 12.8906 103.555 12.7656 103.914 12.5156C104.279 12.2656 104.555 11.8932 104.742 11.3984C104.935 10.8984 105.031 10.2839 105.031 9.55469V9.0625C105.031 8.51562 104.977 8.03646 104.867 7.625C104.763 7.20833 104.607 6.86198 104.398 6.58594C104.19 6.30469 103.93 6.09375 103.617 5.95312C103.31 5.8125 102.956 5.74219 102.555 5.74219H100.023V3.625H102.555C103.326 3.625 104.031 3.75781 104.672 4.02344C105.318 4.28385 105.875 4.65885 106.344 5.14844C106.818 5.63281 107.182 6.20833 107.438 6.875C107.698 7.53646 107.828 8.27083 107.828 9.07812V9.55469C107.828 10.3568 107.698 11.0911 107.438 11.7578C107.182 12.4245 106.82 13 106.352 13.4844C105.883 13.9688 105.328 14.3438 104.688 14.6094C104.052 14.8698 103.354 15 102.594 15ZM101.641 3.625V15H98.8984V3.625H101.641ZM112.172 3.625V15H109.438V3.625H112.172ZM122.625 11.1406H119.797V9.02344H122.625C123.01 9.02344 123.323 8.95833 123.562 8.82812C123.802 8.69792 123.977 8.51823 124.086 8.28906C124.201 8.05469 124.258 7.79167 124.258 7.5C124.258 7.1875 124.201 6.89844 124.086 6.63281C123.977 6.36719 123.802 6.15365 123.562 5.99219C123.323 5.82552 123.01 5.74219 122.625 5.74219H120.828V15H118.086V3.625H122.625C123.536 3.625 124.32 3.79167 124.977 4.125C125.638 4.45833 126.146 4.91667 126.5 5.5C126.854 6.07812 127.031 6.73958 127.031 7.48438C127.031 8.21875 126.854 8.85938 126.5 9.40625C126.146 9.95312 125.638 10.3802 124.977 10.6875C124.32 10.9896 123.536 11.1406 122.625 11.1406ZM127.945 10.8594V10.6953C127.945 10.0755 128.034 9.50521 128.211 8.98438C128.388 8.45833 128.648 8.0026 128.992 7.61719C129.336 7.23177 129.76 6.93229 130.266 6.71875C130.771 6.5 131.354 6.39062 132.016 6.39062C132.682 6.39062 133.268 6.5 133.773 6.71875C134.284 6.93229 134.711 7.23177 135.055 7.61719C135.398 8.0026 135.659 8.45833 135.836 8.98438C136.013 9.50521 136.102 10.0755 136.102 10.6953V10.8594C136.102 11.474 136.013 12.0443 135.836 12.5703C135.659 13.0911 135.398 13.5469 135.055 13.9375C134.711 14.3229 134.286 14.6224 133.781 14.8359C133.276 15.0495 132.693 15.1562 132.031 15.1562C131.37 15.1562 130.784 15.0495 130.273 14.8359C129.763 14.6224 129.336 14.3229 128.992 13.9375C128.648 13.5469 128.388 13.0911 128.211 12.5703C128.034 12.0443 127.945 11.474 127.945 10.8594ZM130.578 10.6953V10.8594C130.578 11.1771 130.602 11.474 130.648 11.75C130.695 12.026 130.773 12.2682 130.883 12.4766C130.992 12.6797 131.141 12.8385 131.328 12.9531C131.516 13.0677 131.75 13.125 132.031 13.125C132.307 13.125 132.536 13.0677 132.719 12.9531C132.906 12.8385 133.055 12.6797 133.164 12.4766C133.273 12.2682 133.352 12.026 133.398 11.75C133.445 11.474 133.469 11.1771 133.469 10.8594V10.6953C133.469 10.388 133.445 10.099 133.398 9.82812C133.352 9.55208 133.273 9.3099 133.164 9.10156C133.055 8.88802 132.906 8.72135 132.719 8.60156C132.531 8.48177 132.297 8.42188 132.016 8.42188C131.74 8.42188 131.508 8.48177 131.32 8.60156C131.138 8.72135 130.992 8.88802 130.883 9.10156C130.773 9.3099 130.695 9.55208 130.648 9.82812C130.602 10.099 130.578 10.388 130.578 10.6953ZM139.93 8.64062V15H137.297V6.54688H139.758L139.93 8.64062ZM142.43 6.48438L142.383 8.92969C142.279 8.91927 142.138 8.90625 141.961 8.89062C141.784 8.875 141.635 8.86719 141.516 8.86719C141.208 8.86719 140.943 8.90365 140.719 8.97656C140.5 9.04427 140.318 9.14844 140.172 9.28906C140.031 9.42448 139.927 9.59635 139.859 9.80469C139.797 10.013 139.768 10.2552 139.773 10.5312L139.297 10.2188C139.297 9.65104 139.352 9.13542 139.461 8.67188C139.576 8.20312 139.737 7.79948 139.945 7.46094C140.154 7.11719 140.406 6.85417 140.703 6.67188C141 6.48438 141.333 6.39062 141.703 6.39062C141.833 6.39062 141.961 6.39844 142.086 6.41406C142.216 6.42969 142.331 6.45312 142.43 6.48438ZM148.18 6.54688V8.375H143.086V6.54688H148.18ZM144.156 4.44531H146.789V12.2422C146.789 12.4661 146.815 12.6406 146.867 12.7656C146.919 12.8854 147.008 12.9714 147.133 13.0234C147.263 13.0703 147.435 13.0938 147.648 13.0938C147.799 13.0938 147.924 13.0911 148.023 13.0859C148.122 13.0755 148.216 13.0625 148.305 13.0469V14.9297C148.081 15.0026 147.846 15.0573 147.602 15.0938C147.357 15.1354 147.096 15.1562 146.82 15.1562C146.258 15.1562 145.776 15.0677 145.375 14.8906C144.979 14.7135 144.677 14.4349 144.469 14.0547C144.26 13.6745 144.156 13.1797 144.156 12.5703V4.44531ZM153.617 12.875V9.39062C153.617 9.15104 153.583 8.94531 153.516 8.77344C153.448 8.60156 153.341 8.46875 153.195 8.375C153.049 8.27604 152.854 8.22656 152.609 8.22656C152.411 8.22656 152.242 8.26042 152.102 8.32812C151.961 8.39583 151.854 8.4974 151.781 8.63281C151.708 8.76823 151.672 8.9401 151.672 9.14844H149.039C149.039 8.75781 149.125 8.39583 149.297 8.0625C149.474 7.72396 149.724 7.42969 150.047 7.17969C150.375 6.92969 150.766 6.73698 151.219 6.60156C151.677 6.46094 152.188 6.39062 152.75 6.39062C153.422 6.39062 154.021 6.5026 154.547 6.72656C155.078 6.95052 155.497 7.28646 155.805 7.73438C156.112 8.17708 156.266 8.73438 156.266 9.40625V12.8672C156.266 13.4193 156.297 13.8385 156.359 14.125C156.422 14.4062 156.51 14.6536 156.625 14.8672V15H153.984C153.859 14.7396 153.766 14.4219 153.703 14.0469C153.646 13.6667 153.617 13.276 153.617 12.875ZM153.938 9.83594L153.953 11.2422H152.789C152.544 11.2422 152.336 11.276 152.164 11.3438C151.997 11.4115 151.862 11.5052 151.758 11.625C151.659 11.7396 151.586 11.8698 151.539 12.0156C151.497 12.1615 151.477 12.3151 151.477 12.4766C151.477 12.6328 151.513 12.7734 151.586 12.8984C151.664 13.0182 151.768 13.112 151.898 13.1797C152.029 13.2474 152.174 13.2812 152.336 13.2812C152.628 13.2812 152.875 13.2266 153.078 13.1172C153.286 13.0026 153.445 12.8646 153.555 12.7031C153.664 12.5417 153.719 12.3906 153.719 12.25L154.297 13.3281C154.193 13.5365 154.073 13.7474 153.938 13.9609C153.807 14.1745 153.643 14.3724 153.445 14.5547C153.253 14.7318 153.016 14.8776 152.734 14.9922C152.453 15.1016 152.112 15.1562 151.711 15.1562C151.19 15.1562 150.711 15.0495 150.273 14.8359C149.841 14.6224 149.495 14.3255 149.234 13.9453C148.974 13.5599 148.844 13.1172 148.844 12.6172C148.844 12.1797 148.922 11.7891 149.078 11.4453C149.24 11.1016 149.482 10.8099 149.805 10.5703C150.128 10.3307 150.539 10.1484 151.039 10.0234C151.539 9.89844 152.128 9.83594 152.805 9.83594H153.938ZM160.508 3V15H157.867V3H160.508Z" fill="#44A5FF"/>
</svg>
