<svg width="166" height="22" viewBox="0 0 166 22" fill="none" xmlns="http://www.w3.org/2000/svg">
<path d="M2.07207 5.33466H4.04325L6.9457 13.6307L9.84815 5.33466H11.8193L7.73727 16.634H6.15412L2.07207 5.33466ZM1.00887 5.33466H2.97229L3.32928 13.4212V16.634H1.00887V5.33466ZM10.9191 5.33466H12.8903V16.634H10.5621V13.4212L10.9191 5.33466ZM14.4346 12.5209V12.358C14.4346 11.7423 14.5226 11.1758 14.6985 10.6584C14.8744 10.1359 15.1305 9.68316 15.4668 9.30031C15.8031 8.91745 16.217 8.61997 16.7085 8.40784C17.2 8.19055 17.7639 8.0819 18.4003 8.0819C19.0366 8.0819 19.6032 8.19055 20.0998 8.40784C20.5965 8.61997 21.013 8.91745 21.3493 9.30031C21.6908 9.68316 21.9494 10.1359 22.1253 10.6584C22.3013 11.1758 22.3892 11.7423 22.3892 12.358V12.5209C22.3892 13.1314 22.3013 13.698 22.1253 14.2205C21.9494 14.7379 21.6908 15.1906 21.3493 15.5786C21.013 15.9615 20.5991 16.2589 20.1076 16.4711C19.6161 16.6832 19.0522 16.7892 18.4158 16.7892C17.7794 16.7892 17.2129 16.6832 16.7162 16.4711C16.2247 16.2589 15.8083 15.9615 15.4668 15.5786C15.1305 15.1906 14.8744 14.7379 14.6985 14.2205C14.5226 13.698 14.4346 13.1314 14.4346 12.5209ZM16.6697 12.358V12.5209C16.6697 12.8728 16.7007 13.2013 16.7628 13.5065C16.8249 13.8118 16.9232 14.0808 17.0577 14.3136C17.1974 14.5413 17.3785 14.7198 17.6009 14.8491C17.8234 14.9784 18.095 15.0431 18.4158 15.0431C18.7262 15.0431 18.9927 14.9784 19.2151 14.8491C19.4376 14.7198 19.6161 14.5413 19.7506 14.3136C19.8851 14.0808 19.9834 13.8118 20.0455 13.5065C20.1128 13.2013 20.1464 12.8728 20.1464 12.5209V12.358C20.1464 12.0165 20.1128 11.6957 20.0455 11.3957C19.9834 11.0904 19.8825 10.8214 19.7429 10.5886C19.6083 10.3506 19.4298 10.1643 19.2074 10.0298C18.9849 9.89528 18.7159 9.82803 18.4003 9.82803C18.0847 9.82803 17.8157 9.89528 17.5932 10.0298C17.3759 10.1643 17.1974 10.3506 17.0577 10.5886C16.9232 10.8214 16.8249 11.0904 16.7628 11.3957C16.7007 11.6957 16.6697 12.0165 16.6697 12.358ZM23.4058 12.5209V12.358C23.4058 11.7423 23.4938 11.1758 23.6697 10.6584C23.8456 10.1359 24.1017 9.68316 24.438 9.30031C24.7743 8.91745 25.1882 8.61997 25.6797 8.40784C26.1712 8.19055 26.7351 8.0819 27.3715 8.0819C28.0078 8.0819 28.5744 8.19055 29.071 8.40784C29.5677 8.61997 29.9842 8.91745 30.3205 9.30031C30.662 9.68316 30.9206 10.1359 31.0966 10.6584C31.2725 11.1758 31.3604 11.7423 31.3604 12.358V12.5209C31.3604 13.1314 31.2725 13.698 31.0966 14.2205C30.9206 14.7379 30.662 15.1906 30.3205 15.5786C29.9842 15.9615 29.5703 16.2589 29.0788 16.4711C28.5873 16.6832 28.0234 16.7892 27.387 16.7892C26.7506 16.7892 26.1841 16.6832 25.6874 16.4711C25.1959 16.2589 24.7795 15.9615 24.438 15.5786C24.1017 15.1906 23.8456 14.7379 23.6697 14.2205C23.4938 13.698 23.4058 13.1314 23.4058 12.5209ZM25.6409 12.358V12.5209C25.6409 12.8728 25.6719 13.2013 25.734 13.5065C25.7961 13.8118 25.8944 14.0808 26.0289 14.3136C26.1686 14.5413 26.3497 14.7198 26.5721 14.8491C26.7946 14.9784 27.0662 15.0431 27.387 15.0431C27.6974 15.0431 27.9639 14.9784 28.1863 14.8491C28.4088 14.7198 28.5873 14.5413 28.7218 14.3136C28.8563 14.0808 28.9546 13.8118 29.0167 13.5065C29.084 13.2013 29.1176 12.8728 29.1176 12.5209V12.358C29.1176 12.0165 29.084 11.6957 29.0167 11.3957C28.9546 11.0904 28.8537 10.8214 28.7141 10.5886C28.5795 10.3506 28.4011 10.1643 28.1786 10.0298C27.9561 9.89528 27.6871 9.82803 27.3715 9.82803C27.0559 9.82803 26.7869 9.89528 26.5644 10.0298C26.3471 10.1643 26.1686 10.3506 26.0289 10.5886C25.8944 10.8214 25.7961 11.0904 25.734 11.3957C25.6719 11.6957 25.6409 12.0165 25.6409 12.358ZM34.9225 10.0298V16.634H32.6875V8.23711H34.7828L34.9225 10.0298ZM34.5966 12.1407H33.9912C33.9912 11.5198 34.0714 10.9611 34.2318 10.4644C34.3922 9.96254 34.6173 9.53571 34.907 9.1839C35.1967 8.82691 35.5408 8.55529 35.9391 8.36904C36.3427 8.17761 36.7928 8.0819 37.2895 8.0819C37.6827 8.0819 38.0422 8.13881 38.3682 8.25263C38.6941 8.36645 38.9735 8.54753 39.2063 8.79587C39.4443 9.04421 39.6254 9.37274 39.7496 9.78146C39.8789 10.1902 39.9436 10.6894 39.9436 11.2792V16.634H37.693V11.2715C37.693 10.899 37.6413 10.6093 37.5378 10.4023C37.4343 10.1954 37.2817 10.0505 37.0799 9.96772C36.8833 9.87976 36.6402 9.83579 36.3504 9.83579C36.0504 9.83579 35.7891 9.89528 35.5666 10.0143C35.3493 10.1333 35.1683 10.2988 35.0234 10.511C34.8837 10.7179 34.7776 10.9611 34.7052 11.2404C34.6328 11.5198 34.5966 11.8199 34.5966 12.1407ZM43.8782 4.70606V16.634H41.6431V4.70606H43.8782ZM49.1709 8.23711L45.5234 12.3968L43.5678 14.3757L42.7529 12.7615L44.305 10.7903L46.4857 8.23711H49.1709ZM46.8505 16.634L44.3671 12.7538L45.9115 11.4034L49.427 16.634H46.8505ZM52.4924 4.71382V16.634H50.2496V4.71382H52.4924ZM58.8716 14.7405V10.9999C58.8716 10.7308 58.8276 10.5006 58.7397 10.3092C58.6517 10.1126 58.5146 9.95995 58.3283 9.85131C58.1473 9.74266 57.9119 9.68834 57.6221 9.68834C57.3738 9.68834 57.1591 9.73231 56.978 9.82026C56.7969 9.90304 56.6572 10.0246 56.5589 10.185C56.4606 10.3402 56.4115 10.5239 56.4115 10.736H54.1764C54.1764 10.379 54.2592 10.0401 54.4248 9.71938C54.5903 9.39861 54.8309 9.11664 55.1465 8.87348C55.4621 8.62514 55.8372 8.43113 56.2718 8.29144C56.7116 8.15175 57.2031 8.0819 57.7463 8.0819C58.3982 8.0819 58.9776 8.19055 59.4847 8.40784C59.9917 8.62514 60.3901 8.95108 60.6798 9.38567C60.9747 9.82026 61.1221 10.3635 61.1221 11.0154V14.6085C61.1221 15.069 61.1506 15.4467 61.2075 15.7416C61.2644 16.0313 61.3472 16.2848 61.4558 16.5021V16.634H59.1975C59.0889 16.4064 59.0061 16.1218 58.9492 15.7804C58.8974 15.4337 58.8716 15.0871 58.8716 14.7405ZM59.1665 11.5198L59.182 12.7848H57.9326C57.6377 12.7848 57.3816 12.8184 57.1643 12.8857C56.947 12.9529 56.7685 13.0487 56.6288 13.1728C56.4891 13.2918 56.3856 13.4315 56.3184 13.5919C56.2563 13.7523 56.2252 13.9282 56.2252 14.1196C56.2252 14.311 56.2692 14.4844 56.3572 14.6396C56.4451 14.7896 56.5719 14.9086 56.7374 14.9966C56.903 15.0793 57.097 15.1207 57.3195 15.1207C57.6558 15.1207 57.9481 15.0535 58.1964 14.919C58.4448 14.7844 58.6362 14.6189 58.7707 14.4223C58.9104 14.2257 58.9828 14.0394 58.988 13.8635L59.5778 14.8103C59.495 15.0224 59.3812 15.2423 59.2363 15.4699C59.0966 15.6976 58.9181 15.9123 58.7008 16.1141C58.4836 16.3107 58.2223 16.4736 57.917 16.603C57.6118 16.7272 57.2496 16.7892 56.8306 16.7892C56.2977 16.7892 55.8139 16.6832 55.3793 16.4711C54.9499 16.2538 54.6084 15.9563 54.3549 15.5786C54.1066 15.1957 53.9824 14.7612 53.9824 14.2748C53.9824 13.8351 54.0652 13.4444 54.2308 13.103C54.3963 12.7615 54.6395 12.4744 54.9603 12.2416C55.2862 12.0036 55.6923 11.8251 56.1787 11.7061C56.665 11.5819 57.2289 11.5198 57.8705 11.5198H59.1665ZM62.845 4.71382H65.08V14.7094L64.855 16.634H62.845V4.71382ZM70.396 12.3502V12.5132C70.396 13.1392 70.3287 13.7135 70.1942 14.236C70.0649 14.7586 69.8631 15.2113 69.5889 15.5941C69.3147 15.9718 68.9732 16.2667 68.5645 16.4788C68.161 16.6858 67.685 16.7892 67.1366 16.7892C66.6244 16.7892 66.1794 16.6858 65.8018 16.4788C65.4293 16.2719 65.1162 15.9796 64.8627 15.6019C64.6092 15.2242 64.4049 14.7818 64.2496 14.2748C64.0944 13.7678 63.978 13.2142 63.9004 12.6141V12.2571C63.978 11.6569 64.0944 11.1033 64.2496 10.5963C64.4049 10.0893 64.6092 9.64695 64.8627 9.26927C65.1162 8.89158 65.4293 8.59927 65.8018 8.39232C66.1743 8.18537 66.614 8.0819 67.1211 8.0819C67.6746 8.0819 68.1558 8.18796 68.5645 8.40008C68.9784 8.60703 69.3199 8.90193 69.5889 9.28479C69.8631 9.66247 70.0649 10.1126 70.1942 10.6351C70.3287 11.1525 70.396 11.7242 70.396 12.3502ZM68.161 12.5132V12.3502C68.161 12.0087 68.1351 11.688 68.0834 11.3879C68.0368 11.0826 67.954 10.8162 67.835 10.5886C67.716 10.3557 67.5531 10.1721 67.3461 10.0376C67.1443 9.90304 66.8831 9.83579 66.5623 9.83579C66.257 9.83579 65.9984 9.88752 65.7862 9.991C65.5741 10.0945 65.3982 10.2393 65.2585 10.4256C65.124 10.6118 65.0231 10.8343 64.9559 11.093C64.8886 11.3465 64.8472 11.6259 64.8317 11.9311V12.9478C64.8472 13.3565 64.9145 13.7187 65.0335 14.0342C65.1576 14.3447 65.3439 14.5904 65.5922 14.7715C65.8457 14.9474 66.1743 15.0354 66.5778 15.0354C66.8934 15.0354 67.1547 14.9733 67.3616 14.8491C67.5686 14.7249 67.729 14.549 67.8428 14.3214C67.9618 14.0937 68.0446 13.8273 68.0911 13.5221C68.1377 13.2116 68.161 12.8753 68.161 12.5132ZM76.3251 14.3136C76.3251 14.1532 76.2785 14.0084 76.1854 13.879C76.0923 13.7497 75.9189 13.6307 75.6654 13.5221C75.4171 13.4082 75.0575 13.3048 74.5867 13.2116C74.1625 13.1185 73.7667 13.0021 73.3993 12.8624C73.0372 12.7175 72.7216 12.5442 72.4526 12.3424C72.1887 12.1407 71.9817 11.9027 71.8317 11.6285C71.6817 11.3491 71.6067 11.0309 71.6067 10.6739C71.6067 10.3221 71.6817 9.991 71.8317 9.68057C71.9869 9.37015 72.2068 9.09595 72.4914 8.85796C72.7811 8.61479 73.1329 8.42595 73.5468 8.29144C73.9659 8.15175 74.4367 8.0819 74.9592 8.0819C75.6887 8.0819 76.3147 8.19831 76.8373 8.43113C77.365 8.66394 77.7685 8.98471 78.0479 9.39343C78.3325 9.79698 78.4747 10.2574 78.4747 10.7748H76.2397C76.2397 10.5575 76.1931 10.3635 76.1 10.1928C76.0121 10.0169 75.8724 9.87976 75.6809 9.78146C75.4947 9.67799 75.2515 9.62625 74.9515 9.62625C74.7031 9.62625 74.4884 9.67023 74.3073 9.75818C74.1262 9.84096 73.9866 9.95478 73.8883 10.0996C73.7951 10.2393 73.7486 10.3945 73.7486 10.5653C73.7486 10.6946 73.7744 10.811 73.8262 10.9145C73.8831 11.0128 73.9736 11.1033 74.0978 11.1861C74.222 11.2689 74.3823 11.3465 74.5789 11.4189C74.7807 11.4862 75.0291 11.5483 75.324 11.6052C75.9293 11.7294 76.4699 11.8923 76.9459 12.0941C77.4219 12.2907 77.7996 12.5597 78.079 12.9012C78.3583 13.2375 78.498 13.6798 78.498 14.2283C78.498 14.6008 78.4152 14.9422 78.2497 15.2527C78.0841 15.5631 77.8461 15.8347 77.5357 16.0675C77.2253 16.2952 76.8528 16.4736 76.4182 16.603C75.9888 16.7272 75.505 16.7892 74.967 16.7892C74.1857 16.7892 73.5235 16.6496 72.9803 16.3702C72.4422 16.0908 72.0335 15.7364 71.7541 15.307C71.4799 14.8724 71.3428 14.4274 71.3428 13.9722H73.4614C73.4718 14.2774 73.5494 14.5232 73.6942 14.7094C73.8443 14.8957 74.0331 15.0302 74.2608 15.113C74.4936 15.1957 74.7445 15.2371 75.0135 15.2371C75.3033 15.2371 75.5438 15.1983 75.7353 15.1207C75.9267 15.0379 76.0716 14.9293 76.1699 14.7948C76.2733 14.6551 76.3251 14.4947 76.3251 14.3136Z" fill="white"/>
<path d="M87.2668 1.87252C87.5909 1.22844 88.2503 0.822021 88.9713 0.822021H162.904C164.325 0.822021 165.247 2.31868 164.609 3.58761L155.963 20.7715C155.639 21.4156 154.98 21.822 154.259 21.822H80.3259C78.9054 21.822 77.983 20.3254 78.6214 19.0564L87.2668 1.87252Z" fill="#F3F3F3"/>
<path d="M88.9606 6.1535H90.9335L93.1755 13.1415L95.4174 6.1535H97.3903L93.9757 16.1974H92.3753L88.9606 6.1535ZM87.7603 6.1535H89.8022L90.1816 13.852V16.1974H87.7603V6.1535ZM96.5487 6.1535H98.5975V16.1974H96.1693V13.852L96.5487 6.1535ZM103.413 16.1974H101.184L101.198 14.3349H103.413C103.872 14.3349 104.261 14.2245 104.578 14.0037C104.9 13.783 105.144 13.4542 105.31 13.0173C105.48 12.5758 105.565 12.0331 105.565 11.3893V10.9547C105.565 10.4718 105.516 10.0487 105.42 9.68542C105.328 9.31751 105.19 9.01169 105.006 8.76795C104.822 8.51961 104.592 8.33336 104.316 8.20919C104.045 8.08502 103.732 8.02294 103.378 8.02294H101.143V6.1535H103.378C104.059 6.1535 104.682 6.27078 105.247 6.50532C105.818 6.73526 106.31 7.06638 106.724 7.49867C107.142 7.92636 107.464 8.43453 107.689 9.02319C107.919 9.60724 108.034 10.2557 108.034 10.9685V11.3893C108.034 12.0975 107.919 12.746 107.689 13.3346C107.464 13.9233 107.144 14.4314 106.731 14.8591C106.317 15.2868 105.827 15.6179 105.261 15.8525C104.7 16.0824 104.084 16.1974 103.413 16.1974ZM102.571 6.1535V16.1974H100.15V6.1535H102.571ZM111.87 6.1535V16.1974H109.455V6.1535H111.87ZM121.1 12.7896H118.603V10.9202H121.1C121.44 10.9202 121.716 10.8627 121.927 10.7478C122.139 10.6328 122.293 10.4741 122.39 10.2718C122.491 10.0648 122.541 9.83258 122.541 9.57505C122.541 9.29912 122.491 9.04388 122.39 8.80934C122.293 8.5748 122.139 8.38625 121.927 8.24368C121.716 8.09652 121.44 8.02294 121.1 8.02294H119.513V16.1974H117.092V6.1535H121.1C121.904 6.1535 122.597 6.30067 123.176 6.59499C123.76 6.88932 124.209 7.29402 124.521 7.80909C124.834 8.31956 124.99 8.90362 124.99 9.56125C124.99 10.2097 124.834 10.7753 124.521 11.2582C124.209 11.7411 123.76 12.1182 123.176 12.3895C122.597 12.6563 121.904 12.7896 121.1 12.7896ZM125.797 12.5413V12.3964C125.797 11.8492 125.876 11.3456 126.032 10.8857C126.188 10.4212 126.418 10.0188 126.722 9.67852C127.025 9.33821 127.4 9.07377 127.846 8.88522C128.292 8.69207 128.807 8.59549 129.391 8.59549C129.98 8.59549 130.497 8.69207 130.944 8.88522C131.394 9.07377 131.771 9.33821 132.075 9.67852C132.378 10.0188 132.608 10.4212 132.765 10.8857C132.921 11.3456 132.999 11.8492 132.999 12.3964V12.5413C132.999 13.084 132.921 13.5875 132.765 14.052C132.608 14.5119 132.378 14.9143 132.075 15.2592C131.771 15.5995 131.397 15.864 130.95 16.0525C130.504 16.2411 129.989 16.3354 129.405 16.3354C128.821 16.3354 128.304 16.2411 127.853 16.0525C127.402 15.864 127.025 15.5995 126.722 15.2592C126.418 14.9143 126.188 14.5119 126.032 14.052C125.876 13.5875 125.797 13.084 125.797 12.5413ZM128.122 12.3964V12.5413C128.122 12.8218 128.143 13.084 128.184 13.3277C128.226 13.5714 128.295 13.7853 128.391 13.9692C128.488 14.1486 128.619 14.2889 128.784 14.39C128.95 14.4912 129.157 14.5418 129.405 14.5418C129.649 14.5418 129.851 14.4912 130.012 14.39C130.178 14.2889 130.309 14.1486 130.405 13.9692C130.502 13.7853 130.571 13.5714 130.612 13.3277C130.654 13.084 130.674 12.8218 130.674 12.5413V12.3964C130.674 12.1251 130.654 11.8699 130.612 11.6307C130.571 11.387 130.502 11.1731 130.405 10.9892C130.309 10.8006 130.178 10.6535 130.012 10.5477C129.847 10.4419 129.64 10.389 129.391 10.389C129.148 10.389 128.943 10.4419 128.777 10.5477C128.616 10.6535 128.488 10.8006 128.391 10.9892C128.295 11.1731 128.226 11.387 128.184 11.6307C128.143 11.8699 128.122 12.1251 128.122 12.3964ZM136.379 10.5822V16.1974H134.055V8.73346H136.228L136.379 10.5822ZM138.587 8.67827L138.545 10.8374C138.453 10.8282 138.329 10.8167 138.173 10.8029C138.017 10.7891 137.885 10.7822 137.78 10.7822C137.508 10.7822 137.274 10.8144 137.076 10.8788C136.883 10.9386 136.722 11.0306 136.593 11.1548C136.469 11.2743 136.377 11.4261 136.317 11.61C136.262 11.794 136.237 12.0078 136.241 12.2516L135.821 11.9756C135.821 11.4744 135.869 11.0191 135.965 10.6098C136.067 10.1959 136.209 9.83948 136.393 9.54056C136.577 9.23703 136.8 9.00479 137.062 8.84383C137.324 8.67827 137.619 8.59549 137.945 8.59549C138.06 8.59549 138.173 8.60239 138.283 8.61619C138.398 8.62998 138.499 8.65068 138.587 8.67827ZM143.664 8.73346V10.3477H139.166V8.73346H143.664ZM140.111 6.87782H142.436V13.7623C142.436 13.96 142.459 14.1141 142.505 14.2245C142.551 14.3303 142.629 14.4061 142.74 14.4521C142.855 14.4935 143.006 14.5142 143.195 14.5142C143.328 14.5142 143.439 14.5119 143.526 14.5073C143.613 14.4981 143.696 14.4866 143.774 14.4728V16.1353C143.577 16.1997 143.37 16.248 143.153 16.2802C142.937 16.317 142.707 16.3354 142.464 16.3354C141.967 16.3354 141.542 16.2572 141.187 16.1008C140.838 15.9445 140.571 15.6984 140.387 15.3627C140.203 15.027 140.111 14.5901 140.111 14.052V6.87782ZM148.465 14.3211V11.2444C148.465 11.0329 148.435 10.8512 148.375 10.6995C148.316 10.5477 148.221 10.4304 148.093 10.3477C147.964 10.2603 147.791 10.2166 147.575 10.2166C147.4 10.2166 147.251 10.2465 147.127 10.3063C147.003 10.366 146.908 10.4557 146.844 10.5753C146.78 10.6949 146.747 10.8466 146.747 11.0306H144.423C144.423 10.6857 144.499 10.366 144.65 10.0717C144.807 9.7728 145.027 9.51296 145.313 9.29222C145.602 9.07147 145.947 8.90132 146.347 8.78175C146.752 8.65758 147.203 8.59549 147.699 8.59549C148.293 8.59549 148.822 8.69437 149.286 8.89212C149.755 9.08987 150.125 9.38649 150.397 9.782C150.668 10.1729 150.804 10.665 150.804 11.2582V14.3142C150.804 14.8016 150.831 15.1718 150.886 15.4248C150.942 15.6731 151.02 15.8916 151.121 16.0801V16.1974H148.789C148.679 15.9674 148.596 15.6869 148.541 15.3558C148.49 15.0201 148.465 14.6752 148.465 14.3211ZM148.748 11.6376L148.762 12.8793H147.734C147.518 12.8793 147.334 12.9092 147.182 12.969C147.035 13.0288 146.915 13.1116 146.823 13.2173C146.736 13.3185 146.672 13.4335 146.63 13.5622C146.593 13.691 146.575 13.8267 146.575 13.9692C146.575 14.1072 146.607 14.2314 146.672 14.3418C146.741 14.4475 146.833 14.5303 146.948 14.5901C147.062 14.6499 147.191 14.6798 147.334 14.6798C147.591 14.6798 147.81 14.6315 147.989 14.5349C148.173 14.4337 148.313 14.3119 148.41 14.1693C148.507 14.0267 148.555 13.8934 148.555 13.7692L149.065 14.7212C148.973 14.9051 148.868 15.0914 148.748 15.2799C148.633 15.4685 148.488 15.6432 148.313 15.8042C148.143 15.9605 147.934 16.0893 147.686 16.1905C147.437 16.2871 147.136 16.3354 146.782 16.3354C146.322 16.3354 145.899 16.2411 145.513 16.0525C145.131 15.864 144.825 15.6018 144.595 15.2661C144.365 14.9258 144.25 14.5349 144.25 14.0934C144.25 13.7071 144.319 13.3622 144.457 13.0587C144.6 12.7552 144.814 12.4976 145.099 12.2861C145.384 12.0745 145.747 11.9136 146.189 11.8032C146.63 11.6928 147.15 11.6376 147.748 11.6376H148.748ZM154.549 5.60164V16.1974H152.218V5.60164H154.549Z" fill="#2A2A2A"/>
</svg>
